<mxfile host="app.diagrams.net" agent="Mozilla/5.0 (Windows NT 10.0; Win64; x64) AppleWebKit/537.36 (KHTML, like Gecko) Chrome/131.0.0.0 Safari/537.36 Edg/131.0.0.0" version="26.0.3">
  <diagram name="第 1 页" id="CkIfewNj6E18buI_u9qx">
    <mxGraphModel dx="1988" dy="1332" grid="0" gridSize="10" guides="1" tooltips="1" connect="1" arrows="1" fold="1" page="0" pageScale="1" pageWidth="827" pageHeight="1169" math="0" shadow="0">
      <root>
        <mxCell id="0" />
        <mxCell id="1" parent="0" />
        <mxCell id="qLyGLyCVG-CQ-u2aqqx6-3" style="edgeStyle=orthogonalEdgeStyle;rounded=0;orthogonalLoop=1;jettySize=auto;html=1;entryX=0;entryY=0.5;entryDx=0;entryDy=0;fillColor=#f8cecc;strokeColor=#b85450;" edge="1" parent="1" source="qLyGLyCVG-CQ-u2aqqx6-1" target="qLyGLyCVG-CQ-u2aqqx6-2">
          <mxGeometry relative="1" as="geometry" />
        </mxCell>
        <mxCell id="qLyGLyCVG-CQ-u2aqqx6-1" value="Decoder" style="rounded=1;whiteSpace=wrap;html=1;fillColor=#60A917;fontFamily=Comic Sans MS;strokeColor=#60A917;" vertex="1" parent="1">
          <mxGeometry x="-76" y="234.5" width="120" height="60" as="geometry" />
        </mxCell>
        <mxCell id="qLyGLyCVG-CQ-u2aqqx6-2" value="" style="whiteSpace=wrap;html=1;aspect=fixed;" vertex="1" parent="1">
          <mxGeometry x="127" y="-125" width="779" height="779" as="geometry" />
        </mxCell>
        <mxCell id="qLyGLyCVG-CQ-u2aqqx6-9" style="edgeStyle=orthogonalEdgeStyle;rounded=0;orthogonalLoop=1;jettySize=auto;html=1;" edge="1" parent="1" source="qLyGLyCVG-CQ-u2aqqx6-4" target="qLyGLyCVG-CQ-u2aqqx6-8">
          <mxGeometry relative="1" as="geometry" />
        </mxCell>
        <mxCell id="qLyGLyCVG-CQ-u2aqqx6-4" value="&lt;div&gt;&lt;span style=&quot;background-color: rgb(96, 169, 23); color: rgb(26, 26, 26); font-size: 13.0667px;&quot;&gt;Conv1d&amp;nbsp; (conv_pre）&amp;nbsp;&lt;/span&gt;&lt;/div&gt;" style="rounded=1;whiteSpace=wrap;html=1;fontColor=default;fillColor=#60A917;strokeColor=#60A917;fontFamily=Comic Sans MS;" vertex="1" parent="1">
          <mxGeometry x="356" y="522" width="148" height="78" as="geometry" />
        </mxCell>
        <mxCell id="qLyGLyCVG-CQ-u2aqqx6-15" style="edgeStyle=orthogonalEdgeStyle;rounded=0;orthogonalLoop=1;jettySize=auto;html=1;exitX=0.75;exitY=0;exitDx=0;exitDy=0;entryX=0.25;entryY=0;entryDx=0;entryDy=0;" edge="1" parent="1" source="qLyGLyCVG-CQ-u2aqqx6-7" target="qLyGLyCVG-CQ-u2aqqx6-12">
          <mxGeometry relative="1" as="geometry" />
        </mxCell>
        <mxCell id="qLyGLyCVG-CQ-u2aqqx6-17" style="edgeStyle=orthogonalEdgeStyle;rounded=0;orthogonalLoop=1;jettySize=auto;html=1;entryX=0.5;entryY=1;entryDx=0;entryDy=0;" edge="1" parent="1" source="qLyGLyCVG-CQ-u2aqqx6-7" target="qLyGLyCVG-CQ-u2aqqx6-16">
          <mxGeometry relative="1" as="geometry" />
        </mxCell>
        <mxCell id="qLyGLyCVG-CQ-u2aqqx6-7" value="&lt;font face=&quot;Comic Sans MS&quot; color=&quot;#1a1a1a&quot;&gt;&lt;span style=&quot;font-size: 13.0667px; background-color: rgb(96, 169, 23);&quot;&gt;Leaky ReLU&lt;br&gt;UpSamples&lt;br&gt;（n&amp;nbsp; &amp;nbsp;(m)）&lt;/span&gt;&lt;/font&gt;" style="rounded=1;whiteSpace=wrap;html=1;fontColor=default;fillColor=#60A917;strokeColor=#60A917;" vertex="1" parent="1">
          <mxGeometry x="356" y="262" width="148" height="78" as="geometry" />
        </mxCell>
        <mxCell id="qLyGLyCVG-CQ-u2aqqx6-10" style="edgeStyle=orthogonalEdgeStyle;rounded=0;orthogonalLoop=1;jettySize=auto;html=1;" edge="1" parent="1" source="qLyGLyCVG-CQ-u2aqqx6-8" target="qLyGLyCVG-CQ-u2aqqx6-7">
          <mxGeometry relative="1" as="geometry" />
        </mxCell>
        <mxCell id="qLyGLyCVG-CQ-u2aqqx6-8" value="&lt;font color=&quot;#1a1a1a&quot;&gt;&lt;span style=&quot;font-size: 13.0667px; background-color: rgb(96, 169, 23);&quot;&gt;Condition&lt;/span&gt;&lt;/font&gt;" style="rounded=1;whiteSpace=wrap;html=1;fontColor=default;fillColor=#60A917;strokeColor=#60A917;fontFamily=Comic Sans MS;" vertex="1" parent="1">
          <mxGeometry x="356" y="397" width="148" height="78" as="geometry" />
        </mxCell>
        <mxCell id="qLyGLyCVG-CQ-u2aqqx6-14" style="edgeStyle=orthogonalEdgeStyle;rounded=0;orthogonalLoop=1;jettySize=auto;html=1;entryX=1;entryY=0.5;entryDx=0;entryDy=0;" edge="1" parent="1" source="qLyGLyCVG-CQ-u2aqqx6-12" target="qLyGLyCVG-CQ-u2aqqx6-7">
          <mxGeometry relative="1" as="geometry" />
        </mxCell>
        <mxCell id="qLyGLyCVG-CQ-u2aqqx6-23" style="edgeStyle=orthogonalEdgeStyle;rounded=0;orthogonalLoop=1;jettySize=auto;html=1;entryX=0;entryY=0.5;entryDx=0;entryDy=0;fillColor=#f8cecc;strokeColor=#b85450;" edge="1" parent="1" source="qLyGLyCVG-CQ-u2aqqx6-12" target="qLyGLyCVG-CQ-u2aqqx6-22">
          <mxGeometry relative="1" as="geometry" />
        </mxCell>
        <mxCell id="qLyGLyCVG-CQ-u2aqqx6-12" value="&lt;font color=&quot;#1a1a1a&quot;&gt;&lt;span style=&quot;font-size: 13.0667px; background-color: rgb(96, 169, 23);&quot;&gt;ResBlocks&lt;br&gt;（m）&lt;/span&gt;&lt;/font&gt;" style="rounded=1;whiteSpace=wrap;html=1;fontColor=default;fillColor=#60A917;strokeColor=#60A917;fontFamily=Comic Sans MS;" vertex="1" parent="1">
          <mxGeometry x="568" y="262" width="148" height="78" as="geometry" />
        </mxCell>
        <mxCell id="qLyGLyCVG-CQ-u2aqqx6-19" style="edgeStyle=orthogonalEdgeStyle;rounded=0;orthogonalLoop=1;jettySize=auto;html=1;entryX=0.5;entryY=1;entryDx=0;entryDy=0;" edge="1" parent="1" source="qLyGLyCVG-CQ-u2aqqx6-16" target="qLyGLyCVG-CQ-u2aqqx6-18">
          <mxGeometry relative="1" as="geometry" />
        </mxCell>
        <mxCell id="qLyGLyCVG-CQ-u2aqqx6-16" value="Leaky ReLU" style="rounded=1;whiteSpace=wrap;html=1;fontColor=default;fillColor=#60A917;strokeColor=#60A917;fontFamily=Comic Sans MS;" vertex="1" parent="1">
          <mxGeometry x="356" y="130" width="148" height="78" as="geometry" />
        </mxCell>
        <mxCell id="qLyGLyCVG-CQ-u2aqqx6-21" style="edgeStyle=orthogonalEdgeStyle;rounded=0;orthogonalLoop=1;jettySize=auto;html=1;" edge="1" parent="1" source="qLyGLyCVG-CQ-u2aqqx6-18" target="qLyGLyCVG-CQ-u2aqqx6-20">
          <mxGeometry relative="1" as="geometry" />
        </mxCell>
        <mxCell id="qLyGLyCVG-CQ-u2aqqx6-18" value="&lt;div&gt;&lt;span style=&quot;background-color: rgb(96, 169, 23); color: rgb(26, 26, 26); font-size: 13.0667px;&quot;&gt;Conv1d&amp;nbsp; (conv_post）&amp;nbsp;&lt;/span&gt;&lt;/div&gt;" style="rounded=1;whiteSpace=wrap;html=1;fontColor=default;fillColor=#60A917;strokeColor=#60A917;fontFamily=Comic Sans MS;" vertex="1" parent="1">
          <mxGeometry x="356" y="11" width="148" height="78" as="geometry" />
        </mxCell>
        <mxCell id="qLyGLyCVG-CQ-u2aqqx6-20" value="Tanh" style="rounded=1;whiteSpace=wrap;html=1;fontColor=default;fillColor=#60A917;strokeColor=#60A917;fontFamily=Comic Sans MS;" vertex="1" parent="1">
          <mxGeometry x="356" y="-101" width="148" height="78" as="geometry" />
        </mxCell>
        <mxCell id="qLyGLyCVG-CQ-u2aqqx6-22" value="&lt;div&gt;&lt;font&gt;&lt;br&gt;&lt;/font&gt;&lt;/div&gt;&lt;div&gt;&lt;font&gt;&lt;br&gt;&lt;/font&gt;&lt;/div&gt;&lt;div&gt;&lt;font&gt;&lt;br&gt;&lt;/font&gt;&lt;/div&gt;&lt;div&gt;&lt;font&gt;&lt;br&gt;&lt;/font&gt;&lt;/div&gt;&lt;div&gt;&lt;font&gt;&lt;br&gt;&lt;/font&gt;&lt;/div&gt;&lt;div&gt;&lt;font&gt;&lt;br&gt;&lt;/font&gt;&lt;/div&gt;&lt;div&gt;&lt;font&gt;&lt;br&gt;&lt;/font&gt;&lt;/div&gt;&lt;div&gt;&lt;font&gt;&lt;br&gt;&lt;/font&gt;&lt;/div&gt;&lt;div&gt;&lt;font&gt;&lt;br&gt;&lt;/font&gt;&lt;/div&gt;&lt;div&gt;&lt;font&gt;&lt;br&gt;&lt;/font&gt;&lt;/div&gt;&lt;div&gt;&lt;font&gt;&lt;br&gt;&lt;/font&gt;&lt;/div&gt;&lt;div&gt;&lt;font&gt;&lt;br&gt;&lt;/font&gt;&lt;/div&gt;&lt;div&gt;&lt;font&gt;&lt;br&gt;&lt;/font&gt;&lt;/div&gt;&lt;div&gt;&lt;font&gt;&lt;br&gt;&lt;/font&gt;&lt;/div&gt;&lt;div&gt;&lt;font&gt;&lt;br&gt;&lt;/font&gt;&lt;/div&gt;&lt;div&gt;&lt;font&gt;&lt;br&gt;&lt;/font&gt;&lt;/div&gt;&lt;div&gt;&lt;font&gt;&lt;br&gt;&lt;/font&gt;&lt;/div&gt;&lt;div&gt;&lt;font&gt;&lt;br&gt;&lt;/font&gt;&lt;/div&gt;&lt;div&gt;&lt;font&gt;&lt;br&gt;&lt;/font&gt;&lt;/div&gt;&lt;div&gt;&lt;font&gt;&lt;br&gt;&lt;/font&gt;&lt;/div&gt;&lt;div&gt;&lt;font&gt;&lt;br&gt;&lt;/font&gt;&lt;/div&gt;&lt;div&gt;&lt;font&gt;&lt;br&gt;&lt;/font&gt;&lt;/div&gt;&lt;div&gt;&lt;font&gt;&lt;br&gt;&lt;/font&gt;&lt;/div&gt;&lt;div&gt;&lt;font&gt;&lt;br&gt;&lt;/font&gt;&lt;/div&gt;&lt;div&gt;&lt;font&gt;&lt;br&gt;&lt;/font&gt;&lt;/div&gt;&lt;div&gt;&lt;font&gt;&lt;br&gt;&lt;/font&gt;&lt;/div&gt;&lt;div&gt;&lt;font&gt;&lt;br&gt;&lt;/font&gt;&lt;/div&gt;&lt;div&gt;&lt;font&gt;&lt;br&gt;&lt;/font&gt;&lt;/div&gt;&lt;div&gt;&lt;font&gt;&lt;br&gt;&lt;/font&gt;&lt;/div&gt;&lt;div&gt;&lt;font&gt;&lt;br&gt;&lt;/font&gt;&lt;/div&gt;&lt;div&gt;&lt;font&gt;&lt;br&gt;&lt;/font&gt;&lt;/div&gt;&lt;div&gt;&lt;font&gt;&lt;br&gt;&lt;/font&gt;&lt;/div&gt;&lt;div&gt;&lt;font&gt;(m)&lt;/font&gt;&lt;/div&gt;&lt;div&gt;&lt;font&gt;(Resnet)&lt;/font&gt;&lt;/div&gt;" style="whiteSpace=wrap;html=1;aspect=fixed;strokeColor=#60A917;fontFamily=Comic Sans MS;fontSize=20;" vertex="1" parent="1">
          <mxGeometry x="956" y="434" width="677" height="677" as="geometry" />
        </mxCell>
        <mxCell id="qLyGLyCVG-CQ-u2aqqx6-27" style="edgeStyle=orthogonalEdgeStyle;rounded=0;orthogonalLoop=1;jettySize=auto;html=1;" edge="1" parent="1" source="qLyGLyCVG-CQ-u2aqqx6-24" target="qLyGLyCVG-CQ-u2aqqx6-26">
          <mxGeometry relative="1" as="geometry" />
        </mxCell>
        <mxCell id="qLyGLyCVG-CQ-u2aqqx6-24" value="&lt;div style=&quot;&quot;&gt;&lt;div style=&quot;font-size: 9.8pt;&quot;&gt;Leaky ReLU&lt;/div&gt;&lt;/div&gt;" style="rounded=1;whiteSpace=wrap;html=1;fontColor=#1A1A1A;labelBackgroundColor=#CCFFFF;strokeColor=#CCFFFF;fillColor=#CCFFFF;fontFamily=Comic Sans MS;" vertex="1" parent="1">
          <mxGeometry x="1201" y="966" width="164" height="87" as="geometry" />
        </mxCell>
        <mxCell id="qLyGLyCVG-CQ-u2aqqx6-29" style="edgeStyle=orthogonalEdgeStyle;rounded=0;orthogonalLoop=1;jettySize=auto;html=1;entryX=0.5;entryY=1;entryDx=0;entryDy=0;" edge="1" parent="1" source="qLyGLyCVG-CQ-u2aqqx6-26" target="qLyGLyCVG-CQ-u2aqqx6-28">
          <mxGeometry relative="1" as="geometry" />
        </mxCell>
        <mxCell id="qLyGLyCVG-CQ-u2aqqx6-34" style="edgeStyle=orthogonalEdgeStyle;rounded=0;orthogonalLoop=1;jettySize=auto;html=1;fillColor=#f8cecc;strokeColor=#b85450;" edge="1" parent="1" source="qLyGLyCVG-CQ-u2aqqx6-26" target="qLyGLyCVG-CQ-u2aqqx6-33">
          <mxGeometry relative="1" as="geometry" />
        </mxCell>
        <mxCell id="qLyGLyCVG-CQ-u2aqqx6-26" value="&lt;div style=&quot;&quot;&gt;&lt;div style=&quot;font-size: 9.8pt;&quot;&gt;Convs1&lt;/div&gt;&lt;/div&gt;" style="rounded=1;whiteSpace=wrap;html=1;fontColor=#1A1A1A;labelBackgroundColor=#CCFFFF;strokeColor=#CCFFFF;fillColor=#CCFFFF;fontFamily=Comic Sans MS;" vertex="1" parent="1">
          <mxGeometry x="1201" y="822" width="164" height="87" as="geometry" />
        </mxCell>
        <mxCell id="qLyGLyCVG-CQ-u2aqqx6-31" style="edgeStyle=orthogonalEdgeStyle;rounded=0;orthogonalLoop=1;jettySize=auto;html=1;entryX=0.5;entryY=1;entryDx=0;entryDy=0;" edge="1" parent="1" source="qLyGLyCVG-CQ-u2aqqx6-28" target="qLyGLyCVG-CQ-u2aqqx6-30">
          <mxGeometry relative="1" as="geometry" />
        </mxCell>
        <mxCell id="qLyGLyCVG-CQ-u2aqqx6-28" value="&lt;div style=&quot;&quot;&gt;&lt;div style=&quot;font-size: 9.8pt;&quot;&gt;Leaky ReLU&lt;/div&gt;&lt;/div&gt;" style="rounded=1;whiteSpace=wrap;html=1;fontColor=#1A1A1A;labelBackgroundColor=#CCFFFF;strokeColor=#CCFFFF;fillColor=#CCFFFF;fontFamily=Comic Sans MS;" vertex="1" parent="1">
          <mxGeometry x="1201" y="678" width="164" height="87" as="geometry" />
        </mxCell>
        <mxCell id="qLyGLyCVG-CQ-u2aqqx6-43" style="edgeStyle=orthogonalEdgeStyle;rounded=0;orthogonalLoop=1;jettySize=auto;html=1;fillColor=#f8cecc;strokeColor=#b85450;" edge="1" parent="1" source="qLyGLyCVG-CQ-u2aqqx6-30" target="qLyGLyCVG-CQ-u2aqqx6-41">
          <mxGeometry relative="1" as="geometry" />
        </mxCell>
        <mxCell id="qLyGLyCVG-CQ-u2aqqx6-30" value="&lt;div style=&quot;&quot;&gt;&lt;div style=&quot;font-size: 9.8pt;&quot;&gt;Convs2&lt;/div&gt;&lt;/div&gt;" style="rounded=1;whiteSpace=wrap;html=1;fontColor=#1A1A1A;labelBackgroundColor=#CCFFFF;strokeColor=#CCFFFF;fillColor=#CCFFFF;fontFamily=Comic Sans MS;" vertex="1" parent="1">
          <mxGeometry x="1201" y="509" width="164" height="87" as="geometry" />
        </mxCell>
        <mxCell id="qLyGLyCVG-CQ-u2aqqx6-33" value="" style="whiteSpace=wrap;html=1;aspect=fixed;strokeColor=#3333FF;" vertex="1" parent="1">
          <mxGeometry x="1749" y="635" width="461" height="461" as="geometry" />
        </mxCell>
        <mxCell id="qLyGLyCVG-CQ-u2aqqx6-39" style="edgeStyle=orthogonalEdgeStyle;rounded=0;orthogonalLoop=1;jettySize=auto;html=1;entryX=0.5;entryY=1;entryDx=0;entryDy=0;" edge="1" parent="1" source="qLyGLyCVG-CQ-u2aqqx6-35" target="qLyGLyCVG-CQ-u2aqqx6-36">
          <mxGeometry relative="1" as="geometry" />
        </mxCell>
        <mxCell id="qLyGLyCVG-CQ-u2aqqx6-35" value="&lt;div style=&quot;&quot;&gt;&lt;div style=&quot;font-size: 9.8pt;&quot;&gt;Dilation Conv1d&lt;/div&gt;&lt;/div&gt;" style="rounded=1;whiteSpace=wrap;html=1;labelBackgroundColor=#F8CECC;strokeColor=#F8CECC;fillColor=#F8CECC;fontFamily=Comic Sans MS;" vertex="1" parent="1">
          <mxGeometry x="1886" y="973.5" width="173" height="72" as="geometry" />
        </mxCell>
        <mxCell id="qLyGLyCVG-CQ-u2aqqx6-40" style="edgeStyle=orthogonalEdgeStyle;rounded=0;orthogonalLoop=1;jettySize=auto;html=1;entryX=0.5;entryY=1;entryDx=0;entryDy=0;" edge="1" parent="1" source="qLyGLyCVG-CQ-u2aqqx6-36" target="qLyGLyCVG-CQ-u2aqqx6-37">
          <mxGeometry relative="1" as="geometry" />
        </mxCell>
        <mxCell id="qLyGLyCVG-CQ-u2aqqx6-36" value="&lt;div style=&quot;&quot;&gt;&lt;div style=&quot;font-size: 9.8pt;&quot;&gt;Dilation Conv1d&lt;/div&gt;&lt;/div&gt;" style="rounded=1;whiteSpace=wrap;html=1;labelBackgroundColor=#F8CECC;strokeColor=#F8CECC;fillColor=#F8CECC;fontFamily=Comic Sans MS;" vertex="1" parent="1">
          <mxGeometry x="1886" y="837" width="173" height="72" as="geometry" />
        </mxCell>
        <mxCell id="qLyGLyCVG-CQ-u2aqqx6-37" value="&lt;div style=&quot;&quot;&gt;&lt;div style=&quot;font-size: 9.8pt;&quot;&gt;Dilation Conv1d&lt;/div&gt;&lt;/div&gt;" style="rounded=1;whiteSpace=wrap;html=1;labelBackgroundColor=#F8CECC;strokeColor=#F8CECC;fillColor=#F8CECC;fontFamily=Comic Sans MS;" vertex="1" parent="1">
          <mxGeometry x="1886" y="693" width="173" height="72" as="geometry" />
        </mxCell>
        <mxCell id="qLyGLyCVG-CQ-u2aqqx6-41" value="" style="whiteSpace=wrap;html=1;aspect=fixed;strokeColor=#3333FF;" vertex="1" parent="1">
          <mxGeometry x="1746" y="104" width="461" height="461" as="geometry" />
        </mxCell>
        <mxCell id="qLyGLyCVG-CQ-u2aqqx6-47" style="edgeStyle=orthogonalEdgeStyle;rounded=0;orthogonalLoop=1;jettySize=auto;html=1;" edge="1" parent="1" source="qLyGLyCVG-CQ-u2aqqx6-42" target="qLyGLyCVG-CQ-u2aqqx6-44">
          <mxGeometry relative="1" as="geometry" />
        </mxCell>
        <mxCell id="qLyGLyCVG-CQ-u2aqqx6-42" value="&lt;div style=&quot;&quot;&gt;&lt;div style=&quot;font-size: 9.8pt;&quot;&gt;Dilation Conv1d&lt;/div&gt;&lt;/div&gt;" style="rounded=1;whiteSpace=wrap;html=1;labelBackgroundColor=#F8CECC;strokeColor=#F8CECC;fillColor=#F8CECC;fontFamily=Comic Sans MS;" vertex="1" parent="1">
          <mxGeometry x="1872" y="445" width="173" height="72" as="geometry" />
        </mxCell>
        <mxCell id="qLyGLyCVG-CQ-u2aqqx6-48" style="edgeStyle=orthogonalEdgeStyle;rounded=0;orthogonalLoop=1;jettySize=auto;html=1;" edge="1" parent="1" source="qLyGLyCVG-CQ-u2aqqx6-44" target="qLyGLyCVG-CQ-u2aqqx6-45">
          <mxGeometry relative="1" as="geometry" />
        </mxCell>
        <mxCell id="qLyGLyCVG-CQ-u2aqqx6-44" value="&lt;div style=&quot;&quot;&gt;&lt;div style=&quot;font-size: 9.8pt;&quot;&gt;Dilation Conv1d&lt;/div&gt;&lt;/div&gt;" style="rounded=1;whiteSpace=wrap;html=1;labelBackgroundColor=#F8CECC;strokeColor=#F8CECC;fillColor=#F8CECC;fontFamily=Comic Sans MS;" vertex="1" parent="1">
          <mxGeometry x="1872" y="322" width="173" height="72" as="geometry" />
        </mxCell>
        <mxCell id="qLyGLyCVG-CQ-u2aqqx6-45" value="&lt;div style=&quot;&quot;&gt;&lt;div style=&quot;font-size: 9.8pt;&quot;&gt;Dilation Conv1d&lt;/div&gt;&lt;/div&gt;" style="rounded=1;whiteSpace=wrap;html=1;labelBackgroundColor=#F8CECC;strokeColor=#F8CECC;fillColor=#F8CECC;fontFamily=Comic Sans MS;" vertex="1" parent="1">
          <mxGeometry x="1872" y="203" width="173" height="72" as="geometry" />
        </mxCell>
      </root>
    </mxGraphModel>
  </diagram>
</mxfile>
